<?xml version="1.0" encoding="UTF-8" standalone="no"?>
<!-- Created with Inkscape (http://www.inkscape.org/) -->

<svg
   width="255.99998"
   height="255.99998"
   viewBox="0 0 67.733328 67.733329"
   version="1.1"
   id="svg1"
   xml:space="preserve"
   xmlns="http://www.w3.org/2000/svg"
   xmlns:svg="http://www.w3.org/2000/svg"><defs
     id="defs1" /><g
     id="layer4"
     style="fill:#44aa00"><path
       d="m 24.466689,29.632798 h 11.650452 c 3.967016,10e-7 7.275525,3.306443 7.275525,7.273458 v 0.0057 c 0,3.967016 -3.308509,7.273458 -7.275525,7.273458 H 32.93339 c 1.194583,1.288221 1.975018,2.971127 1.992126,4.830196 2.339746,0.01234 8.712542,-0.221486 13.84825,-2.873726 0.87535,-0.45214 1.653657,-0.946481 2.322856,-1.475362 1.781402,-1.407535 2.744547,-3.023612 2.78691,-4.676201 0.03195,-0.230839 0.05074,-0.46255 0.05633,-0.694531 0.0054,-0.01187 0.01071,-0.02376 0.01602,-0.03566 -0.0065,-0.890245 -0.166326,-1.760132 -0.45992,-2.619478 -0.703591,-2.0594 -2.229689,-4.066626 -4.423503,-5.906099 -2.841431,-2.382487 -5.799656,-3.174166 -9.060945,-3.587895 -3.26129,-0.413728 -6.796432,-0.40283 -10.51357,-1.254187 -1.180907,-0.270469 -2.187487,-0.729012 -3.040125,-1.282092 -0.09109,0.151814 0.295808,2.55622 -1.99113,5.022419 z"
       style="fill:#ffffff;fill-opacity:1;stroke-width:8.46667;stroke-linecap:round;stroke-linejoin:round"
       id="path56"
       transform="translate(0,1.0583333)" /><path
       d="M 40.440942,6.7453246 C 42.22315,8.0808095 43.3927,10.205907 43.3927,12.564608 v 0.0057 c 0,3.967015 -3.308509,7.273458 -7.275525,7.273458 H 24.843961 c 1.851272,3.420651 2.293147,3.335241 5.126819,3.984253 3.422443,0.783861 6.86075,0.781937 10.306348,1.219047 3.445597,0.43711 6.927439,1.360656 10.154418,4.066418 0.84082,0.705012 1.699585,1.697128 2.465483,2.709395 0.352622,0.374137 0.990337,0.879008 1.30793,0.987537 0.236257,0.08073 0.419391,0.120072 0.578776,0.133842 2.386591,-0.169 4.281121,-1.831086 4.429187,-3.522266 0.154456,-1.764169 -0.554488,-2.654618 -0.554488,-2.654618 -0.177651,-0.232281 -0.133216,-0.564623 0.09922,-0.742073 0.09275,-0.07079 0.206298,-0.108945 0.322978,-0.108521 0.164653,3.55e-4 0.319759,0.07733 0.419612,0.208256 0,0 0.951144,1.289679 0.767395,3.388424 -0.177146,2.023332 -1.924679,3.727804 -4.203877,4.299479 -0.574255,0.156187 -0.655622,0.331614 -0.749309,0.522965 -0.09369,0.191351 -0.08612,0.828223 0.05168,1.315682 0.179748,0.544248 0.123977,0.571439 0.454752,1.28571 0.144794,0.312665 0.218607,0.451336 0.415479,0.603064 0.196871,0.151728 0.62673,0.164526 0.896586,0.0987 4.572253,-0.937474 7.476436,-4.781411 7.476546,-9.606132 5.2e-5,-2.001066 -0.599553,-3.95404 -1.717724,-5.607926 -0.375026,-0.479398 -0.78907,-0.962247 -1.258838,-1.380278 -1.032344,-0.91865 -2.245842,-1.520803 -3.966683,-1.14825 -2.726299,0.59023 -2.986381,3.142444 -2.986381,3.142444 -0.0355,0.290353 -0.299838,0.496824 -0.590145,0.460953 -0.28929,-0.03654 -0.494503,-0.300223 -0.458887,-0.589628 0,0 0.466216,-3.322287 3.812687,-4.046781 0.878321,-0.190156 1.679043,-0.158561 2.400371,0.0217 0.06627,0.0085 0.143842,0.01735 0.226342,0.02325 0.216302,0.01548 0.47004,-0.03225 0.49041,-0.02945 h 5.17e-4 l 5.16e-4,5.17e-4 v 5.16e-4 c 0.20086,-0.115647 0.21929,-0.156532 0.24288,-0.321427 0.0238,-0.166295 0.01959,-0.239012 -0.03876,-0.398425 -0.01205,-0.03291 -0.02731,-0.0693 -0.04599,-0.109554 -1.391806,-1.985599 -3.358006,-3.90095 -5.731433,-5.585706 -1.035886,-0.623264 -1.957841,-1.770202 -5.135087,-1.796789 -1.071375,-0.009 -1.961126,0.314405 -2.556433,0.773079 -0.595307,0.458674 -0.881112,1.027367 -0.857312,1.545125 0.05148,1.119782 0.614423,1.776091 1.308447,2.404505 0.694023,0.628414 1.56773,1.136262 1.863452,2.10323 0.209057,0.683585 0.0721,1.345651 -0.236678,1.84795 -0.308781,0.502299 -0.761471,0.870794 -1.214396,1.158068 -0.905849,0.574548 -1.869136,0.834058 -1.869136,0.834058 -0.281683,0.07757 -0.572928,-0.08783 -0.650607,-0.369486 -0.0786,-0.282025 0.08675,-0.574273 0.36897,-0.652157 0,0 0.846657,-0.236942 1.5844,-0.704867 0.368872,-0.233963 0.695856,-0.523512 0.878499,-0.820621 0.182644,-0.297108 0.251195,-0.576674 0.127124,-0.982369 -0.129482,-0.423388 -0.795822,-0.936532 -1.562695,-1.630908 -0.766872,-0.694376 -1.586363,-1.663488 -1.654163,-3.13831 -0.04294,-0.93418 0.46303,-1.811968 1.267623,-2.431893 0.305749,-0.235575 0.656544,-0.437447 1.044897,-0.596346 0.02193,-0.012464 0.04473,-0.023344 0.06821,-0.032556 0,0 0.16093,-0.063301 0.345716,-0.1756998 C 48.294,9.686461 48.465386,9.5116402 48.486446,9.4650552 48.564916,9.2914755 48.55028,9.238346 48.47456,9.0857502 48.42413,8.9841145 48.387827,8.934218 48.24615,8.836153 48.203258,8.8064645 48.150504,8.774394 48.08647,8.7395181 45.543671,7.7306835 42.93752,7.052897 40.440942,6.7453246 Z"
       style="fill:#ffffff;fill-opacity:1;stroke-width:8.46667;stroke-linecap:round;stroke-linejoin:round"
       id="path60"
       transform="translate(0,1.0583333)" /></g><g
     id="layer2"><path
       style="fill:none;stroke:#ffffff;stroke-width:3.70417;stroke-linecap:round;stroke-linejoin:round;stroke-dasharray:none;stroke-opacity:1"
       d="m 22.225,58.208332 v -3.02041 a 3.0650064,3.0650064 135 0 1 3.065006,-3.065006 l 2.336655,0 A 3.0650064,3.0650064 135 0 0 30.691667,49.05791 3.0427902,3.0427902 44.580126 0 0 27.626661,46.037499 H 16.823339 a 3.0650064,3.0650064 45 0 1 -3.065006,-3.065006 3.0427897,3.0427897 135.41988 0 1 3.065006,-3.02041 h 19.269988 a 3.0650064,3.0650064 135 0 0 3.065006,-3.065006 3.0427902,3.0427902 44.580126 0 0 -3.065006,-3.020411 H 8.356673 A 3.0650064,3.0650064 45 0 1 5.2916666,30.80166 3.0427897,3.0427897 135.41988 0 1 8.356673,27.78125 H 19.159994 A 3.0650064,3.0650064 135 0 0 22.225,24.716244 3.0427902,3.0427902 44.580126 0 0 19.159994,21.695833 h -2.336655 a 3.0650064,3.0650064 45 0 1 -3.065006,-3.065006 3.0427902,3.0427902 135.41987 0 1 3.065006,-3.020411 H 36.093327 A 3.0650064,3.0650064 135 0 0 39.158333,12.54541 3.0427898,3.0427898 44.580119 0 0 36.093327,9.5249998 H 22.225"
       id="path1"
       transform="translate(0,1.0583333)" /></g></svg>
